<?xml version="1.0" encoding="UTF-8"?>
<!DOCTYPE svg PUBLIC "-//W3C//DTD SVG 1.1//EN" "http://www.w3.org/Graphics/SVG/1.1/DTD/svg11.dtd">
<!-- Creator: CorelDRAW X6 -->
<svg xmlns="http://www.w3.org/2000/svg" xml:space="preserve" width="2.88889in" height="1.47222in" version="1.1" style="shape-rendering:geometricPrecision; text-rendering:geometricPrecision; image-rendering:optimizeQuality; fill-rule:evenodd; clip-rule:evenodd"
viewBox="0 0 2889 1472"
 xmlns:xlink="http://www.w3.org/1999/xlink">
 <defs>
  <style type="text/css">
   <![CDATA[
    .fil0 {fill:#F26801}
   ]]>
  </style>
 </defs>
 <g id="Layer_x0020_1">
  <metadata id="CorelCorpID_0Corel-Layer"/>
  <path class="fil0" d="M1623 691c-35,-297 -35,-297 -35,-366 251,-292 251,-292 268,-298 -78,222 -155,443 -233,665l0 0zm1266 -233l0 0c-288,75 -575,151 -862,227 -13,-1 -25,-1 -37,-1 6,-21 13,-43 19,-63 -59,-2 -118,-4 -177,-6 17,-54 35,-108 53,-161 62,-6 125,-11 187,-17 17,-48 34,-95 51,-143 -58,-4 -115,-8 -172,-11 2,-26 2,-26 42,-145 64,-4 129,-7 194,-11 13,-46 26,-93 39,-139l-1 0c-180,3 -360,6 -540,9 -48,54 -95,108 -142,162 -6,-9 -6,-9 46,-163 -63,-1 -125,-2 -188,-3 -88,259 -175,517 -263,776 61,-2 121,-4 182,-6 30,-80 60,-160 90,-239 11,82 24,164 36,246 78,1 156,3 234,4 -424,118 -424,118 -1047,277 -368,0 -377,-279 -250,-560 -6,-1 -11,-3 -17,-4l0 0c-235,217 -365,474 -365,672 1,254 217,408 703,249 729,-317 1457,-633 2186,-949zm-1741 -470l-1 0c-57,1 -115,4 -172,6 -33,93 -67,185 -100,279l-4 -284 -197 0 -267 782 0 0c62,0 125,0 187,0 14,-59 14,-59 93,-275 1,91 4,183 6,275 66,0 132,0 198,0 85,-261 171,-521 257,-782zm-227 782c88,-259 176,-517 264,-775 63,0 125,0 188,0 -91,256 -182,511 -272,767 -61,2 -120,5 -180,8l0 0z"/>
 </g>
</svg>
