<svg id="Layer_1" data-name="Layer 1" xmlns="http://www.w3.org/2000/svg" xmlns:xlink="http://www.w3.org/1999/xlink" viewBox="0 0 370 180"><defs><style>.cls-1{fill:none;}.cls-2{clip-path:url(#clip-path);}.cls-3{fill:#fff;}.cls-4{fill:#7c00fd;}.cls-5{fill:url(#linear-gradient);}.cls-6{fill:url(#linear-gradient-2);}.cls-7{fill:url(#linear-gradient-3);}.cls-8{fill:url(#linear-gradient-4);}.cls-9{fill:url(#linear-gradient-5);}.cls-10{fill:url(#linear-gradient-6);}.cls-11{fill:url(#linear-gradient-7);}.cls-12{fill:url(#linear-gradient-8);}.cls-13{fill:url(#linear-gradient-9);}.cls-14{fill:url(#linear-gradient-10);}.cls-15{fill:url(#linear-gradient-11);}.cls-16{fill:url(#linear-gradient-12);}.cls-17{fill:url(#linear-gradient-13);}.cls-18{fill:url(#linear-gradient-14);}.cls-19{fill:url(#linear-gradient-15);}.cls-20{fill:url(#linear-gradient-16);}.cls-21{fill:url(#linear-gradient-17);}.cls-22{fill:url(#linear-gradient-18);}.cls-23{fill:url(#linear-gradient-19);}.cls-24{fill:url(#linear-gradient-20);}.cls-25{fill:url(#linear-gradient-21);}.cls-26{fill:url(#linear-gradient-22);}.cls-27{fill:url(#linear-gradient-23);}.cls-28{fill:url(#linear-gradient-24);}.cls-29{fill:url(#linear-gradient-25);}.cls-30{fill:url(#linear-gradient-26);}.cls-31{fill:url(#linear-gradient-27);}.cls-32{fill:url(#linear-gradient-28);}.cls-33{fill:url(#linear-gradient-29);}.cls-34{fill:url(#linear-gradient-30);}.cls-35{fill:url(#linear-gradient-31);}.cls-36{fill:url(#linear-gradient-32);}.cls-37{fill:url(#linear-gradient-33);}.cls-38{fill:url(#linear-gradient-34);}.cls-39{fill:url(#linear-gradient-35);}.cls-40{fill:url(#linear-gradient-36);}.cls-41{fill:url(#linear-gradient-37);}.cls-42{fill:url(#linear-gradient-38);}.cls-43{fill:url(#linear-gradient-39);}.cls-44{fill:url(#linear-gradient-40);}.cls-45{fill:url(#linear-gradient-41);}.cls-46{fill:url(#linear-gradient-42);}.cls-47{fill:url(#linear-gradient-43);}.cls-48{fill:url(#linear-gradient-44);}.cls-49{fill:url(#linear-gradient-45);}.cls-50{fill:url(#linear-gradient-46);}.cls-51{fill:url(#linear-gradient-47);}.cls-52{fill:url(#linear-gradient-48);}.cls-53{fill:url(#linear-gradient-49);}.cls-54{fill:url(#linear-gradient-50);}.cls-55{fill:url(#linear-gradient-51);}.cls-56{fill:url(#linear-gradient-52);}.cls-57{fill:url(#linear-gradient-53);}.cls-58{fill:url(#linear-gradient-54);}.cls-59{fill:url(#linear-gradient-55);}.cls-60{fill:url(#linear-gradient-56);}.cls-61{fill:url(#linear-gradient-57);}.cls-62{fill:url(#linear-gradient-58);}.cls-63{fill:url(#linear-gradient-59);}.cls-64{fill:url(#linear-gradient-60);}.cls-65{fill:url(#linear-gradient-61);}.cls-66{fill:url(#linear-gradient-62);}.cls-67{fill:url(#linear-gradient-63);}.cls-68{fill:url(#linear-gradient-64);}.cls-69{fill:url(#linear-gradient-65);}.cls-70{fill:url(#linear-gradient-66);}.cls-71{fill:url(#linear-gradient-67);}.cls-72{fill:url(#linear-gradient-68);}.cls-73{fill:url(#linear-gradient-69);}.cls-74{fill:url(#linear-gradient-70);}.cls-75{fill:url(#linear-gradient-71);}.cls-76{fill:url(#linear-gradient-72);}.cls-77{fill:url(#linear-gradient-73);}.cls-78{fill:url(#linear-gradient-74);}.cls-79{fill:url(#linear-gradient-75);}.cls-80{fill:url(#linear-gradient-76);}.cls-81{fill:url(#linear-gradient-77);}.cls-82{fill:url(#linear-gradient-78);}.cls-83{fill:url(#linear-gradient-79);}.cls-84{fill:url(#linear-gradient-80);}.cls-85{fill:url(#linear-gradient-81);}.cls-86{fill:url(#linear-gradient-82);}.cls-87{fill:url(#linear-gradient-83);}.cls-88{fill:url(#linear-gradient-84);}.cls-89{fill:url(#linear-gradient-85);}.cls-90{fill:url(#linear-gradient-86);}.cls-91{fill:url(#linear-gradient-87);}.cls-92{fill:url(#linear-gradient-88);}.cls-93{fill:url(#linear-gradient-89);}.cls-94{fill:url(#linear-gradient-90);}.cls-95{fill:#29abe2;}</style><clipPath id="clip-path"><rect id="_Clipping_Path_" data-name="&lt;Clipping Path&gt;" class="cls-1" x="5" y="3.5" width="360" height="173" rx="12.5" ry="12.5"/></clipPath><linearGradient id="linear-gradient" x1="180.61" y1="153.37" x2="180.61" y2="134.76" gradientUnits="userSpaceOnUse"><stop offset="0" stop-color="#cf2e53"/><stop offset="1" stop-color="#fc3567"/></linearGradient><linearGradient id="linear-gradient-2" x1="295.72" y1="163.47" x2="295.72" y2="149.42" xlink:href="#linear-gradient"/><linearGradient id="linear-gradient-3" x1="94.8" y1="89.6" x2="94.8" y2="79.29" gradientTransform="translate(66.68 -39.36) rotate(35.51)" xlink:href="#linear-gradient"/><linearGradient id="linear-gradient-4" x1="298.24" y1="34.14" x2="298.24" y2="12.83" gradientTransform="translate(169.17 -246.4) rotate(59.94)" xlink:href="#linear-gradient"/><linearGradient id="linear-gradient-5" x1="136.18" y1="90.95" x2="136.18" y2="73.42" gradientTransform="translate(39.82 -44.37) rotate(21.6)" xlink:href="#linear-gradient"/><linearGradient id="linear-gradient-6" x1="123.06" y1="129.46" x2="123.06" y2="115.56" xlink:href="#linear-gradient"/><linearGradient id="linear-gradient-7" x1="309.66" y1="181.07" x2="309.66" y2="167.36" xlink:href="#linear-gradient"/><linearGradient id="linear-gradient-8" x1="255.85" y1="13.31" x2="255.85" y2="1.47" gradientTransform="translate(11.35 -68.32) rotate(15.55)" xlink:href="#linear-gradient"/><linearGradient id="linear-gradient-9" x1="160.21" y1="41.23" x2="160.21" y2="29.46" gradientTransform="translate(112.93 -121.76) rotate(60.81)" xlink:href="#linear-gradient"/><linearGradient id="linear-gradient-10" x1="323.94" y1="86.28" x2="323.94" y2="74.39" gradientTransform="translate(272.59 -249.44) rotate(67.22)" xlink:href="#linear-gradient"/><linearGradient id="linear-gradient-11" x1="96.48" y1="182.27" x2="96.48" y2="172.61" gradientTransform="translate(114.11 -23.76) rotate(33.54)" xlink:href="#linear-gradient"/><linearGradient id="linear-gradient-12" x1="235.28" y1="170.12" x2="235.28" y2="160.43" gradientTransform="translate(242.08 -122.17) rotate(56.27)" xlink:href="#linear-gradient"/><linearGradient id="linear-gradient-13" x1="353.69" y1="165.45" x2="353.69" y2="130.96" gradientUnits="userSpaceOnUse"><stop offset="0" stop-color="#5a0047"/><stop offset="1" stop-color="#840d72"/></linearGradient><linearGradient id="linear-gradient-14" x1="99.89" y1="67.16" x2="99.89" y2="60.35" xlink:href="#linear-gradient-13"/><linearGradient id="linear-gradient-15" x1="-576.36" y1="-601.34" x2="-576.36" y2="-607.33" gradientTransform="translate(964.1 439) rotate(-18.16)" xlink:href="#linear-gradient-13"/><linearGradient id="linear-gradient-16" x1="94.94" y1="153.05" x2="94.94" y2="146.46" xlink:href="#linear-gradient-13"/><linearGradient id="linear-gradient-17" x1="132.17" y1="39.44" x2="132.17" y2="25.21" xlink:href="#linear-gradient-13"/><linearGradient id="linear-gradient-18" x1="310.15" y1="110.21" x2="310.15" y2="106.46" xlink:href="#linear-gradient-13"/><linearGradient id="linear-gradient-19" x1="169.47" y1="129.88" x2="169.47" y2="125.74" xlink:href="#linear-gradient-13"/><linearGradient id="linear-gradient-20" x1="320.93" y1="32.37" x2="320.93" y2="25.42" xlink:href="#linear-gradient-13"/><linearGradient id="linear-gradient-21" x1="224.29" y1="148.22" x2="224.29" y2="144.51" xlink:href="#linear-gradient-13"/><linearGradient id="linear-gradient-22" x1="340.46" y1="34.78" x2="340.46" y2="7.57" gradientUnits="userSpaceOnUse"><stop offset="0" stop-color="#36b9fd"/><stop offset="1" stop-color="#0690fd"/></linearGradient><linearGradient id="linear-gradient-23" x1="350.01" y1="7.57" x2="350.01" y2="7.51" xlink:href="#linear-gradient-22"/><linearGradient id="linear-gradient-24" x1="120.35" y1="62.16" x2="120.35" y2="24.69" xlink:href="#linear-gradient-22"/><linearGradient id="linear-gradient-25" x1="333.06" y1="110.29" x2="333.06" y2="94.77" xlink:href="#linear-gradient-22"/><linearGradient id="linear-gradient-26" x1="78.61" y1="49.81" x2="78.61" y2="43.25" xlink:href="#linear-gradient-22"/><linearGradient id="linear-gradient-27" x1="269.45" y1="130.25" x2="269.45" y2="125.4" xlink:href="#linear-gradient-22"/><linearGradient id="linear-gradient-28" x1="106.89" y1="9.78" x2="106.89" y2="-3.74" xlink:href="#linear-gradient-22"/><linearGradient id="linear-gradient-29" x1="234.32" y1="142.25" x2="234.32" y2="128.92" xlink:href="#linear-gradient-22"/><linearGradient id="linear-gradient-30" x1="332.77" y1="184.12" x2="332.77" y2="171.35" xlink:href="#linear-gradient-22"/><linearGradient id="linear-gradient-31" x1="195.6" y1="8.89" x2="195.6" y2="-2.35" xlink:href="#linear-gradient-22"/><linearGradient id="linear-gradient-32" x1="127.31" y1="152.22" x2="127.31" y2="152.19" xlink:href="#linear-gradient-22"/><linearGradient id="linear-gradient-33" x1="132.57" y1="152.19" x2="132.57" y2="137.2" xlink:href="#linear-gradient-22"/><linearGradient id="linear-gradient-34" x1="325.75" y1="159.44" x2="325.75" y2="138.79" xlink:href="#linear-gradient-22"/><linearGradient id="linear-gradient-35" x1="132.77" y1="171.89" x2="132.77" y2="163.22" xlink:href="#linear-gradient-22"/><linearGradient id="linear-gradient-36" x1="318.61" y1="131.34" x2="318.61" y2="122.42" xlink:href="#linear-gradient-22"/><linearGradient id="linear-gradient-37" x1="214.41" y1="39.11" x2="214.41" y2="32.19" xlink:href="#linear-gradient-22"/><linearGradient id="linear-gradient-38" x1="143.4" y1="22.13" x2="143.4" y2="15.09" xlink:href="#linear-gradient-22"/><linearGradient id="linear-gradient-39" x1="271.88" y1="166.61" x2="271.88" y2="160.41" xlink:href="#linear-gradient-22"/><linearGradient id="linear-gradient-40" x1="109.69" y1="101.28" x2="109.69" y2="95.09" xlink:href="#linear-gradient-22"/><linearGradient id="linear-gradient-41" x1="51.81" y1="126.61" x2="51.81" y2="118.06" xlink:href="#linear-gradient-22"/><linearGradient id="linear-gradient-42" x1="198.59" y1="180.89" x2="198.59" y2="162.65" xlink:href="#linear-gradient-22"/><linearGradient id="linear-gradient-43" x1="253.54" y1="181.57" x2="253.54" y2="173.76" xlink:href="#linear-gradient-22"/><linearGradient id="linear-gradient-44" x1="346.15" y1="93.21" x2="346.15" y2="79.76" gradientUnits="userSpaceOnUse"><stop offset="0" stop-color="#f19e00"/><stop offset="0.92" stop-color="#f0db03"/></linearGradient><linearGradient id="linear-gradient-45" x1="173.08" y1="27.14" x2="173.08" y2="13.68" xlink:href="#linear-gradient-44"/><linearGradient id="linear-gradient-46" x1="160.94" y1="84.28" x2="160.94" y2="70.73" xlink:href="#linear-gradient-44"/><linearGradient id="linear-gradient-47" x1="262.25" y1="86.66" x2="262.25" y2="79.82" xlink:href="#linear-gradient-44"/><linearGradient id="linear-gradient-48" x1="131.08" y1="184.87" x2="131.08" y2="177.47" xlink:href="#linear-gradient-44"/><linearGradient id="linear-gradient-49" x1="257.27" y1="163.02" x2="257.27" y2="155.56" xlink:href="#linear-gradient-44"/><linearGradient id="linear-gradient-50" x1="58.73" y1="94.26" x2="58.73" y2="94.25" gradientUnits="userSpaceOnUse"><stop offset="0" stop-color="#74ac00"/><stop offset="1" stop-color="#a4e300"/></linearGradient><linearGradient id="linear-gradient-51" x1="43.67" y1="96.41" x2="43.67" y2="81.78" xlink:href="#linear-gradient-50"/><linearGradient id="linear-gradient-52" x1="156.29" y1="189.57" x2="156.29" y2="152.85" xlink:href="#linear-gradient-50"/><linearGradient id="linear-gradient-53" x1="112.61" y1="55.83" x2="112.61" y2="49.27" xlink:href="#linear-gradient-50"/><linearGradient id="linear-gradient-54" x1="356.11" y1="117.87" x2="356.11" y2="113.01" xlink:href="#linear-gradient-50"/><linearGradient id="linear-gradient-55" x1="-371.62" y1="-5167.45" x2="-371.62" y2="-5178.69" gradientTransform="translate(5099.34 -1804.92) rotate(-106.79)" xlink:href="#linear-gradient-50"/><linearGradient id="linear-gradient-56" x1="92.33" y1="25.79" x2="92.33" y2="14.54" xlink:href="#linear-gradient-50"/><linearGradient id="linear-gradient-57" x1="140" y1="119.39" x2="140" y2="107.81" xlink:href="#linear-gradient-50"/><linearGradient id="linear-gradient-58" x1="215.33" y1="158.86" x2="215.33" y2="147.62" xlink:href="#linear-gradient-50"/><linearGradient id="linear-gradient-59" x1="5234.2" y1="-2972.12" x2="5234.2" y2="-2983.36" gradientTransform="matrix(-0.55, 0.83, -0.83, -0.55, 756.23, -5941.05)" xlink:href="#linear-gradient-50"/><linearGradient id="linear-gradient-60" x1="316.68" y1="52.79" x2="316.68" y2="41.55" xlink:href="#linear-gradient-50"/><linearGradient id="linear-gradient-61" x1="206.15" y1="27.52" x2="206.15" y2="16.27" xlink:href="#linear-gradient-50"/><linearGradient id="linear-gradient-62" x1="269.4" y1="191.83" x2="269.4" y2="178.1" xlink:href="#linear-gradient-50"/><linearGradient id="linear-gradient-63" x1="294.98" y1="63.71" x2="294.98" y2="63.7" xlink:href="#linear-gradient-50"/><linearGradient id="linear-gradient-64" x1="303.28" y1="70.58" x2="303.28" y2="62.52" xlink:href="#linear-gradient-50"/><linearGradient id="linear-gradient-65" x1="242.73" y1="25.59" x2="242.73" y2="5.36" xlink:href="#linear-gradient-50"/><linearGradient id="linear-gradient-66" x1="156.14" y1="55.42" x2="156.14" y2="50.81" xlink:href="#linear-gradient-50"/><linearGradient id="linear-gradient-67" x1="97.32" y1="43.48" x2="97.32" y2="40.8" xlink:href="#linear-gradient-50"/><linearGradient id="linear-gradient-68" x1="51.41" y1="14.74" x2="51.41" y2="12.07" xlink:href="#linear-gradient-50"/><linearGradient id="linear-gradient-69" x1="156.48" y1="106.24" x2="156.48" y2="100.05" xlink:href="#linear-gradient-50"/><linearGradient id="linear-gradient-70" x1="276.42" y1="109.57" x2="276.42" y2="103.38" xlink:href="#linear-gradient-50"/><linearGradient id="linear-gradient-71" x1="277.95" y1="20.68" x2="277.95" y2="14.3" xlink:href="#linear-gradient-50"/><linearGradient id="linear-gradient-72" x1="185.87" y1="41.98" x2="185.87" y2="35.79" xlink:href="#linear-gradient-50"/><linearGradient id="linear-gradient-73" x1="97.06" y1="104.5" x2="97.06" y2="98.3" xlink:href="#linear-gradient-50"/><linearGradient id="linear-gradient-74" x1="109.33" y1="171.44" x2="109.33" y2="165.25" xlink:href="#linear-gradient-50"/><linearGradient id="linear-gradient-75" x1="238.85" y1="130.14" x2="238.85" y2="118.13" xlink:href="#linear-gradient-50"/><linearGradient id="linear-gradient-76" x1="145.09" y1="7.62" x2="145.09" y2="0.05" xlink:href="#linear-gradient-50"/><linearGradient id="linear-gradient-77" x1="282.05" y1="131.29" x2="282.05" y2="124.3" xlink:href="#linear-gradient-50"/><linearGradient id="linear-gradient-78" x1="109.55" y1="141.64" x2="109.55" y2="130.28" xlink:href="#linear-gradient-50"/><linearGradient id="linear-gradient-79" x1="18.04" y1="104.1" x2="18.04" y2="101.43" xlink:href="#linear-gradient-50"/><linearGradient id="linear-gradient-80" x1="197.61" y1="142.26" x2="197.61" y2="136.13" xlink:href="#linear-gradient-50"/><linearGradient id="linear-gradient-81" x1="185.7" y1="172.51" x2="185.7" y2="166.38" xlink:href="#linear-gradient-50"/><linearGradient id="linear-gradient-82" x1="232.47" y1="18.86" x2="232.47" y2="-3.89" gradientUnits="userSpaceOnUse"><stop offset="0" stop-color="#a51a88"/><stop offset="1" stop-color="#e433b6"/></linearGradient><linearGradient id="linear-gradient-83" x1="285.47" y1="56.68" x2="285.47" y2="49.27" xlink:href="#linear-gradient-82"/><linearGradient id="linear-gradient-84" x1="361.56" y1="9.59" x2="361.56" y2="-2.4" xlink:href="#linear-gradient-82"/><linearGradient id="linear-gradient-85" x1="314.32" y1="161.36" x2="314.32" y2="154.45" xlink:href="#linear-gradient-82"/><linearGradient id="linear-gradient-86" x1="177.32" y1="169.69" x2="177.32" y2="157.16" xlink:href="#linear-gradient-82"/><linearGradient id="linear-gradient-87" x1="155.4" y1="143.31" x2="155.4" y2="136.42" xlink:href="#linear-gradient-82"/><linearGradient id="linear-gradient-88" x1="145.02" y1="48.85" x2="145.02" y2="45.04" xlink:href="#linear-gradient-82"/><linearGradient id="linear-gradient-89" x1="279.98" y1="178.24" x2="279.98" y2="163.05" xlink:href="#linear-gradient-82"/><linearGradient id="linear-gradient-90" x1="212.62" y1="170.34" x2="212.62" y2="166.92" xlink:href="#linear-gradient-82"/></defs><title>Game1 - card</title><g id="_Clip_Group_" data-name="&lt;Clip Group&gt;"><g class="cls-2"><g id="_Group_" data-name="&lt;Group&gt;"><rect id="_Path_" data-name="&lt;Path&gt;" class="cls-3" x="5" y="3.5" width="360" height="173" rx="12.5" ry="12.5"/><g id="_Group_2" data-name="&lt;Group&gt;"><rect id="_Path_2" data-name="&lt;Path&gt;" class="cls-4" x="264.43" y="24.77" width="4.35" height="9.31" transform="translate(26.27 148.51) rotate(-32.66)"/><rect id="_Path_3" data-name="&lt;Path&gt;" class="cls-4" x="240.61" y="152.94" width="2.68" height="2.68"/><rect id="_Path_4" data-name="&lt;Path&gt;" class="cls-4" x="271.59" y="145.58" width="2.68" height="2.68" transform="translate(-0.79 292.34) rotate(-56.27)"/></g><g id="_Group_3" data-name="&lt;Group&gt;"><path id="_Path_5" data-name="&lt;Path&gt;" class="cls-5" d="M171.9,137l0.15,0.35,0.19,0.37,0.4,0.78a18,18,0,0,0,1.05,1.63l0.3,0.42,0.34,0.4,0.34,0.41,0.38,0.39,0.38,0.39,0.41,0.36c0.14,0.12.27,0.25,0.42,0.36l0.44,0.34,0.22,0.17,0.23,0.15,0.46,0.3c0.15,0.1.32,0.18,0.48,0.28s0.32,0.19.49,0.27c0.34,0.16.66,0.33,1,.46l0.5,0.2,0.51,0.18,0.25,0.09,0.26,0.07,0.51,0.15,0.51,0.12,0.25,0.06,0.25,0,0.5,0.09,0.49,0.07c0.32,0.05.65,0.07,1,.11,0.62,0,1.21.07,1.75,0.06s1,0,1.47-.07,0.8-.08,1.1-0.13l0.65-.12,0.08,0h0.08l0.47,7.64h-0.43c-0.26,0-.6-0.06-1-0.12s-0.94-.15-1.51-0.27-1.21-.28-1.9-0.48-1.42-.45-2.18-0.74c-0.38-.16-0.77-0.3-1.15-0.49l-0.59-.27-0.59-.3-0.3-.15-0.29-.17-0.59-.34-0.58-.37-0.29-.19-0.28-.2-0.57-.41-0.55-.44c-0.37-.28-0.71-0.62-1.05-0.93-0.17-.16-0.33-0.33-0.49-0.5s-0.33-.33-0.48-0.51L174.9,146l-0.22-.26-0.2-.28-0.4-.54c-0.13-.18-0.24-0.38-0.36-0.56l-0.35-.55-0.3-.57-0.29-.55-0.25-.56-0.24-.54-0.19-.54a19.4,19.4,0,0,1-.59-2l-0.17-.91c0-.14-0.06-0.28-0.08-0.42l0-.4c-0.05-.52-0.13-1-0.13-1.33L171,134.76l0.38,1.08C171.51,136.19,171.71,136.59,171.9,137Z"/><rect id="_Path_6" data-name="&lt;Path&gt;" class="cls-6" x="294.43" y="149.42" width="2.57" height="14.05"/><rect id="_Path_7" data-name="&lt;Path&gt;" class="cls-7" x="89.01" y="82.25" width="11.58" height="4.39" transform="translate(-31.42 70.77) rotate(-35.51)"/><rect id="_Path_8" data-name="&lt;Path&gt;" class="cls-8" x="288.15" y="19.66" width="20.19" height="7.66" transform="translate(128.52 269.85) rotate(-59.94)"/><rect id="_Path_9" data-name="&lt;Path&gt;" class="cls-9" x="132.91" y="74.06" width="6.54" height="16.26" transform="translate(-20.69 55.91) rotate(-21.6)"/><path id="_Path_10" data-name="&lt;Path&gt;" class="cls-10" d="M121.15,128.49l0.14-.16,0.14-.18,0.3-.38a9.84,9.84,0,0,0,.57-0.9l0.14-.25,0.12-.26,0.12-.27,0.11-.28,0.11-.28,0.09-.29c0-.1.06-0.19,0.08-0.29l0.07-.3,0-.15,0-.15,0-.3c0-.1,0-0.2,0-0.31s0-.2,0-0.3,0-.4,0-0.61,0-.2,0-0.3l0-.3,0-.15,0-.15,0-.29-0.06-.28,0-.14,0-.14-0.07-.27-0.08-.26c0-.17-0.12-0.34-0.17-0.5-0.12-.32-0.25-0.62-0.38-0.89s-0.26-.51-0.37-0.72-0.23-.38-0.32-0.52l-0.21-.3,0,0h0v0h0l3.71-2h0l0,0,0,0.08,0,0.09c0,0.13.11,0.31,0.18,0.54s0.14,0.5.21,0.82,0.14,0.67.2,1.06,0.1,0.81.14,1.26c0,0.23,0,.45,0,0.69s0,0.24,0,.36v0.36c0,0.06,0,.12,0,0.18v0.19l0,0.37-0.05.38,0,0.19,0,0.19-0.07.38-0.09.38c-0.06.25-.14,0.5-0.22,0.74s-0.09.24-.13,0.36-0.09.24-.14,0.36l-0.16.35-0.08.17-0.09.16-0.18.33c-0.06.11-.13,0.21-0.2,0.31l-0.2.3-0.21.28-0.21.27-0.22.25-0.22.24-0.23.22a10.8,10.8,0,0,1-.87.77l-0.41.3-0.19.14-0.19.12c-0.25.15-.45,0.29-0.63,0.38l-0.56.3,0.45-.44C120.81,128.89,121,128.7,121.15,128.49Z"/><path id="_Path_11" data-name="&lt;Path&gt;" class="cls-11" d="M307.62,180.14l0.15-.15,0.15-.17,0.31-.37a9.82,9.82,0,0,0,.6-0.88l0.15-.24,0.13-.26,0.13-.26,0.12-.27,0.12-.28,0.1-.29c0-.1.07-0.19,0.09-0.29l0.08-.3,0-.15,0-.15,0.06-.3c0-.1,0-0.2,0-0.3s0-.2,0-0.3,0-.4,0-0.61,0-.2,0-0.3l0-.3v-0.15l0-.15,0-.29,0-.29,0-.14,0-.14-0.06-.27-0.07-.27c0-.17-0.1-0.34-0.15-0.51-0.11-.33-0.22-0.63-0.34-0.9s-0.24-.52-0.35-0.73-0.21-.39-0.3-0.53l-0.2-.3,0,0h0v0h0l3.78-1.87h0v0l0,0.08,0,0.09c0,0.13.1,0.32,0.16,0.55s0.12,0.51.18,0.83,0.12,0.67.16,1.06,0.07,0.81.09,1.26c0,0.23,0,.45,0,0.69v0.36l0,0.36v0.18l0,0.19,0,0.37-0.06.37,0,0.19,0,0.19-0.09.37-0.11.37c-0.07.25-.16,0.49-0.25,0.73s-0.1.24-.15,0.36-0.1.24-.16,0.35l-0.17.34-0.09.17-0.1.16-0.19.32c-0.06.11-.14,0.2-0.21,0.3l-0.21.29-0.22.27-0.22.27-0.23.24-0.23.24-0.24.21a10.45,10.45,0,0,1-.9.73l-0.42.28-0.2.13-0.19.11c-0.25.14-.46,0.27-0.65,0.35l-0.57.28,0.47-.42C307.26,180.52,307.42,180.33,307.62,180.14Z"/><rect id="_Path_12" data-name="&lt;Path&gt;" class="cls-12" x="253.74" y="1.83" width="4.22" height="11.12" transform="translate(7.38 68.86) rotate(-15.55)"/><rect id="_Path_13" data-name="&lt;Path&gt;" class="cls-13" x="154.65" y="33.23" width="11.12" height="4.22" transform="translate(51.22 157.97) rotate(-60.81)"/><rect id="_Path_14" data-name="&lt;Path&gt;" class="cls-14" x="318.38" y="78.23" width="11.12" height="4.22" transform="translate(124.45 347.91) rotate(-67.22)"/><rect id="_Path_15" data-name="&lt;Path&gt;" class="cls-15" x="90.92" y="175.33" width="11.12" height="4.22" transform="translate(-81.98 82.86) rotate(-33.54)"/><rect id="_Path_16" data-name="&lt;Path&gt;" class="cls-16" x="233.17" y="159.71" width="4.22" height="11.12" transform="translate(-32.82 269.17) rotate(-56.27)"/></g><g id="_Group_4" data-name="&lt;Group&gt;"><path id="_Path_17" data-name="&lt;Path&gt;" class="cls-17" d="M338.42,131.28c0,0.06-.9,5.66,1.63,8.45,1.05,1.16,2.55,1.33,4.56,1.53,4.84,0.49,5.68,1.89,6.84,3.27a8.66,8.66,0,0,1,2.33,6.91c-0.86,5.15.11,9.81,3.33,11.53s8,0,12.42-4.89l1.47,1.34-0.41.44c-2.5,2.65-5,4.6-7.56,5.24-3.81.95-4.87-.26-6.53-1.68-3.53-3-6-4.88-4.64-12.47,0.4-2.23.18-4.34-1-5.74s-3.38-1.58-6.13-2a7.64,7.64,0,0,1-5.33-3c-3.16-3.49-3.17-5.37-2.95-9.31Z"/><polygon id="_Path_18" data-name="&lt;Path&gt;" class="cls-18" points="103.29 64.19 100.38 64.39 99.45 67.16 96.48 63.32 100.32 60.35 103.29 64.19"/><polygon id="_Path_19" data-name="&lt;Path&gt;" class="cls-19" points="231.85 46.32 228.38 45.35 226.16 48.19 224.29 42.5 229.98 40.63 231.85 46.32"/><polygon id="_Path_20" data-name="&lt;Path&gt;" class="cls-20" points="98.23 148.79 95.91 153.05 94.56 150.46 91.65 150.72 93.97 146.46 98.23 148.79"/><path id="_Path_21" data-name="&lt;Path&gt;" class="cls-21" d="M123.89,25.93a3.18,3.18,0,0,1,3.71-.24c2.36,1,4,1.53,4.57,5.74a3.86,3.86,0,0,0,1.5,2.84c0.9,0.56,2,.25,3.55,0a4.21,4.21,0,0,1,3.3.65c2.25,1.29,2.58,2.27,3.14,4.37l-1.08.17s-0.5-3.12-2.3-4.15a3.61,3.61,0,0,0-2.65,0c-2.62.57-3.3,0-4.14-.54a4.77,4.77,0,0,1-2.4-3.22c-0.43-2.85-1.74-5.12-3.72-5.47s-4.19,1.39-5.67,4.68l-1-.45,0.14-.3A9.3,9.3,0,0,1,123.89,25.93Z"/><polygon id="_Path_22" data-name="&lt;Path&gt;" class="cls-22" points="310.39 106.46 312.03 108.58 309.91 110.21 308.27 108.1 309.88 107.99 310.39 106.46"/><polygon id="_Path_23" data-name="&lt;Path&gt;" class="cls-23" points="171.54 125.74 171.54 129.88 167.4 129.88 167.4 125.74 169.47 127.13 171.54 125.74"/><polygon id="_Path_24" data-name="&lt;Path&gt;" class="cls-24" points="318.87 25.42 320.94 27.74 323 25.42 323 32.37 318.87 32.37 318.87 25.42"/><polygon id="_Path_25" data-name="&lt;Path&gt;" class="cls-25" points="223.93 144.51 226.15 146 224.66 148.22 222.44 146.74 223.93 146.12 223.93 144.51"/></g><g id="_Group_5" data-name="&lt;Group&gt;"><path id="_Path_26" data-name="&lt;Path&gt;" class="cls-26" d="M330,30.75c3.78,2.47,7,2.94,8.85,1.3,1.6-1.43,1.85-4.3.58-6.83a10.44,10.44,0,0,1-.24-9.41c1-1.89,2-3.6,4.83-4.4,5.46-1.56,6-3.49,6-3.83L352.15,8c-0.12.55-1.05,3.42-8.27,5.48-2.19.63-3.53,1.56-4.1,2.86-0.75,1.71-.25,4.21,1.59,7.88,1.73,3.46.36,6.2-2,8.31-1.25,1.11-4,4.38-10.59,0Z"/><path id="_Path_27" data-name="&lt;Path&gt;" class="cls-27" d="M350,7.51s0,0,0,.05h0V7.51Z"/><path id="_Path_28" data-name="&lt;Path&gt;" class="cls-28" d="M116.78,30.09a6.74,6.74,0,0,1,.74,5.33c-0.54,2.39-1.14,4.19-.33,5.67a6.17,6.17,0,0,0,4.4,2.64c6.67,1.31,7.43,3.94,8.76,7.8,0.63,1.82,1.29,3.07-.71,5.9-1.35,1.91-3.75,3.33-6.72,4.54l-0.5.2-0.63-1.63c5.4-2.08,8.38-5.31,8-8.65s-3.91-5.48-8.41-6.41a7.63,7.63,0,0,1-4.93-4.12c-0.77-1.39-1.65-2.53-.51-6.66,0.47-1.72.81-3,.19-4.24-1.49-3-6.38-4-6.42-4l0.36-1.71C113.38,25.76,114.92,26.37,116.78,30.09Z"/><path id="_Path_29" data-name="&lt;Path&gt;" class="cls-29" d="M334.35,103.89a2.63,2.63,0,0,0-1.22-2c-1.65-1.26-1.84-2.88-1.71-4.62,0.08-1.16.32-2.35,1.52-2.51l0.2,1.46a1.17,1.17,0,0,0-1.08.9c-0.23.93,0.71,2.08,1.93,3.57s0.93,2.62.94,3.87c0,2.26-1.83,4.74-2.77,5.73l-1-1.11C332.1,108.39,334.44,105.91,334.35,103.89Z"/><polygon id="_Path_30" data-name="&lt;Path&gt;" class="cls-30" points="81.88 45.5 79.63 49.81 78.23 47.24 75.33 47.56 77.58 43.25 81.88 45.5"/><polygon id="_Path_31" data-name="&lt;Path&gt;" class="cls-31" points="271.88 130.25 269.45 128.63 267.02 130.25 267.02 125.4 271.88 125.4 271.88 130.25"/><polygon id="_Path_32" data-name="&lt;Path&gt;" class="cls-32" points="108.05 -0.69 111.08 -2.3 107.28 9.78 102.69 8.34 106.5 -3.74 108.05 -0.69"/><polygon id="_Path_33" data-name="&lt;Path&gt;" class="cls-33" points="239.64 139.78 236.32 138.92 235.52 142.25 229 131.4 233.12 128.93 239.64 139.78"/><polygon id="_Path_34" data-name="&lt;Path&gt;" class="cls-34" points="335.32 184 332.86 181.62 330.52 184.12 330.21 171.46 335.01 171.34 335.32 184"/><polygon id="_Path_35" data-name="&lt;Path&gt;" class="cls-35" points="200.11 4.99 191.08 8.89 196.95 -2.35 200.11 4.99"/><path id="_Path_36" data-name="&lt;Path&gt;" class="cls-36" d="M127.31,152.22v0h0v0Z"/><path id="_Path_37" data-name="&lt;Path&gt;" class="cls-37" d="M130.68,148.92a3.2,3.2,0,0,0,2.26-1.57c0.41-.94.14-2.32-0.87-4.34s-0.2-3.42,1.11-4.58c0.69-.61,2.18-2.41,5.84,0l-0.66,1c-2.08-1.36-3.86-1.62-4.88-.72a3.21,3.21,0,0,0-.32,3.77,5.76,5.76,0,0,1,.13,5.19,4,4,0,0,1-2.66,2.43c-3,.86-3.28,1.93-3.31,2.11l-1.18-.25C126.19,151.64,126.71,150.06,130.68,148.92Z"/><path id="_Path_38" data-name="&lt;Path&gt;" class="cls-38" d="M324.32,138.9l0.27-.11,0.35,0.9c-3,1.15-4.62,2.93-4.4,4.76s2.15,3,4.64,3.53a4.2,4.2,0,0,1,2.72,2.27c0.42,0.77.91,1.39,0.28,3.67a3.17,3.17,0,0,0-.11,2.34c0.82,1.64,3.51,2.22,3.54,2.22l-0.2.94c-1.82-.59-2.67-0.92-3.7-3a3.71,3.71,0,0,1-.41-2.94c0.3-1.32.63-2.31,0.18-3.12a3.4,3.4,0,0,0-2.42-1.46c-3.67-.72-4.09-2.17-4.83-4.29a2.8,2.8,0,0,1,.39-3.25A8.2,8.2,0,0,1,324.32,138.9Z"/><polygon id="_Path_39" data-name="&lt;Path&gt;" class="cls-39" points="124.94 163.22 141.66 166.53 140.6 171.89 123.88 168.57 130 167 124.94 163.22"/><polygon id="_Path_40" data-name="&lt;Path&gt;" class="cls-40" points="321.37 123.37 318.86 131.34 317.84 129.32 315.84 130.39 318.35 122.42 321.37 123.37"/><polygon id="_Path_41" data-name="&lt;Path&gt;" class="cls-41" points="215.86 34.07 217.74 33.98 213.01 39.11 211.07 37.31 215.8 32.19 215.86 34.07"/><polygon id="_Path_42" data-name="&lt;Path&gt;" class="cls-42" points="144.64 15.09 144.81 22.07 142.16 22.13 141.99 15.16 143.35 16.47 144.64 15.09"/><polygon id="_Path_43" data-name="&lt;Path&gt;" class="cls-43" points="271.13 166.61 269.39 162.56 274.37 160.41 271.13 166.61"/><polygon id="_Path_44" data-name="&lt;Path&gt;" class="cls-44" points="108.94 101.28 107.2 97.24 112.18 95.09 108.94 101.28"/><path id="_Path_45" data-name="&lt;Path&gt;" class="cls-45" d="M50.79,121.22a5.39,5.39,0,0,1,1.53-3.15l0.53,0.61c-0.5.43-1.79,1.8-1.74,2.91a1.45,1.45,0,0,0,.67,1.1,2.61,2.61,0,0,1,.94,2.54,1.22,1.22,0,0,1-.84,1.38l-0.11-.8a0.64,0.64,0,0,0,.6-0.5c0.13-.51-0.39-1.15-1.07-2A2.81,2.81,0,0,1,50.79,121.22Z"/><path id="_Path_46" data-name="&lt;Path&gt;" class="cls-46" d="M197.64,162.65l0.47,1.11c-2.29,1-3.49,2.31-3.3,3.66a3.21,3.21,0,0,0,3,2.36,5.76,5.76,0,0,1,4.38,2.77,4,4,0,0,1,.54,3.56c-1,3-.22,3.8-0.08,3.92l-0.86.85c-0.22-.22-1.25-1.53,0-5.46a3.2,3.2,0,0,0-.06-2.75c-0.55-.87-1.85-1.4-4.1-1.68s-3-1.73-3.19-3.46C194.29,166.61,193.62,164.37,197.64,162.65Z"/><polygon id="_Path_47" data-name="&lt;Path&gt;" class="cls-47" points="255.54 173.76 257.44 175.65 251.53 181.56 252.56 178.64 249.64 179.68 255.54 173.76"/></g><g id="_Group_6" data-name="&lt;Group&gt;"><polygon id="_Path_48" data-name="&lt;Path&gt;" class="cls-48" points="351.22 90.98 347.96 89.93 346.96 93.21 341.08 81.99 345.33 79.76 351.22 90.98"/><polygon id="_Path_49" data-name="&lt;Path&gt;" class="cls-49" points="176.96 14.87 173.84 27.14 172.12 24.18 169.19 25.96 172.31 13.68 176.96 14.87"/><polygon id="_Path_50" data-name="&lt;Path&gt;" class="cls-50" points="165.45 72.46 160.91 84.28 159.55 81.14 156.43 82.56 160.97 70.73 165.45 72.46"/><polygon id="_Path_51" data-name="&lt;Path&gt;" class="cls-51" points="265.63 81.66 260.76 86.66 260.75 84.78 258.87 84.82 263.73 79.82 265.63 81.66"/><polygon id="_Path_52" data-name="&lt;Path&gt;" class="cls-52" points="130.63 177.47 133.88 183.65 131.53 184.88 128.29 178.7 130.09 179.27 130.63 177.47"/><polygon id="_Path_53" data-name="&lt;Path&gt;" class="cls-53" points="257.28 155.56 258.04 157.29 259.75 156.51 257.25 163.02 254.78 162.07 257.28 155.56"/></g><g id="_Group_7" data-name="&lt;Group&gt;"><path id="_Path_54" data-name="&lt;Path&gt;" class="cls-54" d="M58.76,94.25h0Z"/><path id="_Path_55" data-name="&lt;Path&gt;" class="cls-55" d="M31.11,82.36c-1.2,4.26-.69,7.42,1.4,8.66,1.81,1.08,4.57.46,6.56-1.47a10.25,10.25,0,0,1,8.73-3c2.06,0.36,4,.82,5.54,3.22,3.07,4.64,5,4.54,5.36,4.49l0.22,2.14c-0.55.06-3.51,0-7.57-6.11-1.23-1.86-2.5-2.84-3.88-3-1.82-.2-4,1-6.9,3.81-2.73,2.64-5.7,2.17-8.37.58-1.41-.84-5.27-2.41-3.17-9.9Z"/><path id="_Path_56" data-name="&lt;Path&gt;" class="cls-56" d="M150.85,176.89c2-1.34,3.64-2.21,4.06-3.82a6.06,6.06,0,0,0-1.35-4.86c-3.87-5.43-2.64-7.82-1-11.48,0.78-1.72,1.15-3.06,4.49-3.73,2.25-.45,4.92.15,7.86,1.3l0.49,0.19-0.65,1.59c-5.25-2.16-9.57-1.87-11.53.78s-0.91,6.54,1.67,10.25a7.5,7.5,0,0,1,.74,6.27c-0.39,1.51-.53,2.91-4.14,5.1-1.5.91-2.61,1.59-3,2.89-0.94,3.12,1.83,7.18,1.86,7.22l-1.41,1c-1.64-3-2.33-4.47-1.15-8.38A6.62,6.62,0,0,1,150.85,176.89Z"/><polygon id="_Path_57" data-name="&lt;Path&gt;" class="cls-57" points="111.58 49.27 115.89 51.52 113.63 55.83 112.23 53.26 109.33 53.58 111.58 49.27"/><polygon id="_Path_58" data-name="&lt;Path&gt;" class="cls-58" points="358.54 117.87 356.11 116.24 353.68 117.87 353.68 113.01 358.54 113.01 358.54 117.87"/><polygon id="_Path_59" data-name="&lt;Path&gt;" class="cls-59" points="254.31 40.03 260.65 47.55 248.19 45.18 254.31 40.03"/><polygon id="_Path_60" data-name="&lt;Path&gt;" class="cls-60" points="96.85 21.89 87.81 25.79 93.68 14.54 96.85 21.89"/><polygon id="_Path_61" data-name="&lt;Path&gt;" class="cls-61" points="143.87 119.39 136.14 117.32 138.68 107.81 143.87 119.39"/><polygon id="_Path_62" data-name="&lt;Path&gt;" class="cls-62" points="219.85 154.96 210.82 158.86 216.69 147.62 219.85 154.96"/><polygon id="_Path_63" data-name="&lt;Path&gt;" class="cls-63" points="346.68 69.98 348.42 60.29 354.56 71.39 346.68 69.98"/><polygon id="_Path_64" data-name="&lt;Path&gt;" class="cls-64" points="321.19 48.89 312.16 52.79 318.03 41.55 321.19 48.89"/><polygon id="_Path_65" data-name="&lt;Path&gt;" class="cls-65" points="210.67 23.62 201.63 27.52 207.5 16.27 210.67 23.62"/><polygon id="_Path_66" data-name="&lt;Path&gt;" class="cls-66" points="275.25 191.82 258.36 185.45 280.43 178.1 275.25 191.82"/><path id="_Path_67" data-name="&lt;Path&gt;" class="cls-67" d="M295,63.71h0Z"/><path id="_Path_68" data-name="&lt;Path&gt;" class="cls-68" d="M299,65.89a3.14,3.14,0,0,0,2.14,1.65c1,0.11,2.21-.56,3.8-2.1s3.14-1.19,4.61-.32c0.78,0.46,2.9,1.33,1.74,5.45l-1.14-.32c0.66-2.35.38-4.09-.77-4.77a3.15,3.15,0,0,0-3.62.81A5.65,5.65,0,0,1,301,67.95a4,4,0,0,1-3.05-1.77c-1.7-2.57-2.77-2.5-3-2.47l-0.12-1.18C295.18,62.49,296.81,62.51,299,65.89Z"/><path id="_Path_69" data-name="&lt;Path&gt;" class="cls-69" d="M238,24.79l-0.27-.11,0.36-.88c2.9,1.19,5.27,1,6.35-.43s0.5-3.6-.92-5.65a4.13,4.13,0,0,1-.4-3.45c0.21-.83.29-1.61,2.28-2.81A3.12,3.12,0,0,0,247,9.87c0.52-1.72-1-4-1-4l0.78-.54c0.9,1.65,1.28,2.46.63,4.62a3.64,3.64,0,0,1-1.69,2.37c-1.1.74-2,1.22-2.24,2.11a3.34,3.34,0,0,0,.75,2.68c2.14,3,1.45,4.31.55,6.32a2.76,2.76,0,0,1-2.47,2.06A8.06,8.06,0,0,1,238,24.79Z"/><polygon id="_Path_70" data-name="&lt;Path&gt;" class="cls-70" points="153.84 50.8 156.14 52.35 158.45 50.8 158.45 55.42 153.84 55.42 153.84 50.8"/><polygon id="_Path_71" data-name="&lt;Path&gt;" class="cls-71" points="95.98 40.8 97.32 41.7 98.66 40.8 98.66 43.48 95.98 43.48 95.98 40.8"/><polygon id="_Path_72" data-name="&lt;Path&gt;" class="cls-72" points="50.07 12.07 51.41 12.96 52.74 12.07 52.74 14.74 50.07 14.74 50.07 12.07"/><polygon id="_Path_73" data-name="&lt;Path&gt;" class="cls-73" points="153.99 102.19 158.97 100.05 155.74 106.24 153.99 102.19"/><polygon id="_Path_74" data-name="&lt;Path&gt;" class="cls-74" points="273.93 105.52 278.9 103.38 275.67 109.57 273.93 105.52"/><polygon id="_Path_75" data-name="&lt;Path&gt;" class="cls-75" points="278.68 20.68 275.82 14.3 280.08 15.44 278.68 20.68"/><polygon id="_Path_76" data-name="&lt;Path&gt;" class="cls-76" points="185.13 41.98 183.38 37.94 188.36 35.79 185.13 41.98"/><polygon id="_Path_77" data-name="&lt;Path&gt;" class="cls-77" points="96.31 104.5 94.57 100.45 99.55 98.3 96.31 104.5"/><polygon id="_Path_78" data-name="&lt;Path&gt;" class="cls-78" points="108.59 171.44 106.84 167.4 111.82 165.25 108.59 171.44"/><polygon id="_Path_79" data-name="&lt;Path&gt;" class="cls-79" points="242.68 130.14 235.02 127.55 238.2 118.13 242.68 130.14"/><polygon id="_Path_80" data-name="&lt;Path&gt;" class="cls-80" points="141.87 0.05 151.18 3.57 139.01 7.62 141.87 0.05"/><polygon id="_Path_81" data-name="&lt;Path&gt;" class="cls-81" points="288.38 124.3 284.32 131.29 275.72 126.29 288.38 124.3"/><polygon id="_Path_82" data-name="&lt;Path&gt;" class="cls-82" points="108.18 141.64 104.98 134.22 114.11 130.28 108.18 141.64"/><polygon id="_Path_83" data-name="&lt;Path&gt;" class="cls-83" points="18.04 102.32 19.38 101.43 19.38 104.1 16.7 104.1 16.7 101.43 18.04 102.32"/><polygon id="_Path_84" data-name="&lt;Path&gt;" class="cls-84" points="199.78 142.26 195.45 141.46 196.43 136.13 199.78 142.26"/><polygon id="_Path_85" data-name="&lt;Path&gt;" class="cls-85" points="187.87 172.51 183.53 171.71 184.51 166.38 187.87 172.51"/></g><g id="_Group_8" data-name="&lt;Group&gt;"><path id="_Path_86" data-name="&lt;Path&gt;" class="cls-86" d="M227.18,15.94c1.36-1.14,1.23-3.89,1-7.48C228,5.16,229.68,3.52,231,1.65c2.47-3.39,7.95-5.09,10.43-5.54l0.22,2.72c-2.23.18-8.46,1.34-10.53,4.46a4.88,4.88,0,0,0-.36,4.32c1.1,3.7-.41,6.33-2.51,8.79-1.4,1.64-3.06,3.16-5,2.09l1.3-2.4A2.16,2.16,0,0,0,227.18,15.94Z"/><polygon id="_Path_87" data-name="&lt;Path&gt;" class="cls-87" points="287.38 49.27 288.44 56.68 282.5 53.14 287.38 49.27"/><polygon id="_Path_88" data-name="&lt;Path&gt;" class="cls-88" points="359.13 4.57 363.99 -2.4 363.99 9.59 359.13 4.57"/><polygon id="_Path_89" data-name="&lt;Path&gt;" class="cls-89" points="317.29 156.81 311.34 161.36 311.53 154.45 317.29 156.81"/><path id="_Path_90" data-name="&lt;Path&gt;" class="cls-90" d="M178.05,165.74a2.69,2.69,0,0,0,.2-2.38c-0.6-2,.22-3.49,1.38-4.85,0.77-.9,1.68-1.74,2.77-1.15l-0.72,1.32a1.19,1.19,0,0,0-1.44.09c-0.75.63-.68,2.15-0.57,4.12s-0.81,2.73-1.56,3.76c-1.36,1.87-4.38,2.8-5.75,3l-0.12-1.5C173.48,168.1,176.91,167.46,178.05,165.74Z"/><polygon id="_Path_91" data-name="&lt;Path&gt;" class="cls-91" points="153.62 143.31 152.63 136.42 158.16 139.72 153.62 143.31"/><polygon id="_Path_92" data-name="&lt;Path&gt;" class="cls-92" points="146.55 48.85 143.38 47.54 146.66 45.04 146.55 48.85"/><path id="_Path_93" data-name="&lt;Path&gt;" class="cls-93" d="M277.57,163.05l0.7,1.33a1.19,1.19,0,0,0-.73,1.24c0.1,1,1.41,1.76,3.11,2.76s1.82,2.19,2.26,3.39c0.8,2.17-.1,5.2-0.65,6.47l-1.31-.73c0.6-1.08,2-4.28,1.18-6.19a2.69,2.69,0,0,0-1.87-1.49c-2-.63-2.78-2.12-3.26-3.84C276.67,164.85,276.48,163.63,277.57,163.05Z"/><polygon id="_Path_94" data-name="&lt;Path&gt;" class="cls-94" points="214.48 170.34 210.76 168.55 214.2 166.91 214.48 170.34"/></g></g></g></g><g id="_Group_9" data-name="&lt;Group&gt;"><path class="cls-95" d="M116.21,161.84l6.92-7.57-6.92-7.57,6.92-7.57-6.92-7.56,6.92-7.56-6.92-7.56,6.92-7.56-6.92-7.57,6.92-7.56-6.92-7.56,6.92-7.56-6.92-7.56,6.92-7.56-6.92-7.56,6.92-7.56-6.92-7.56,6.92-7.56-6.92-7.56,6.92-7.56-6.92-7.56,6.48-7.08H17.5A12.5,12.5,0,0,0,5,16V164a12.5,12.5,0,0,0,12.5,12.5h99.16l6.48-7.09Z"/></g></svg>